<svg width="306" height="266" viewBox="0 0 306 266" fill="none" xmlns="http://www.w3.org/2000/svg">
<g clip-path="url(#clip0_1_4818)">
<path fill-rule="evenodd" clip-rule="evenodd" d="M153.931 41.6788C155.175 41.6928 156.411 41.7394 157.64 41.8114L157.641 41.8125C157.33 41.7945 157.019 41.7783 156.708 41.764C157.689 53.7142 163.115 65.2164 170.506 74.5126C175.701 81.0474 182.286 87.0723 190.119 92.0583C192.188 93.3735 194.776 93.2037 196.638 91.8332C204.393 87.0367 211.02 80.6376 216.226 73.1592L216.227 73.1588L216.316 73.0303L216.384 72.9317L216.383 72.9336C226.801 86.467 233 103.427 233 121.836C233 166.104 197.175 202 152.999 202C108.823 202.002 73 166.105 73 121.836C73 77.989 108.15 42.3511 151.751 41.6837C152.478 41.6723 153.204 41.6708 153.931 41.6788Z" fill="#2394E0"/>
<path fill-rule="evenodd" clip-rule="evenodd" d="M88.3097 163.25C83.5233 155.983 80.0357 147.936 78.0032 139.47L92.0934 146.279L92.1653 150.491C92.1653 152.039 89.5281 155.332 88.6925 156.583L88.3097 163.25ZM212.544 77.9849C219.483 87.7242 224.172 99.1835 225.842 111.603L223.299 111.33C222.848 113.281 222.433 113.33 222.433 115.679C222.433 117.751 225.037 119.138 225.037 123.512C225.037 124.684 222.291 127.027 222.17 127.435L218.091 122.642V128.733L217.472 128.709L216.373 117.469L214.095 118.188L211.386 109.826L202.46 119.161L202.353 125.997L199.439 127.955L196.344 110.422L194.493 111.778L190.3 106.108L184.033 106.295L181.632 103.546L179.175 104.223L174.342 98.673L173.408 99.3094L176.402 106.979L179.877 106.979V105.238L181.613 105.239C182.866 108.707 184.219 106.653 184.219 108.721C184.219 115.958 175.298 121.279 169.454 122.642C169.766 123.95 169.646 125.255 171.189 125.255C174.462 125.255 172.836 124.681 176.402 124.385C176.236 131.779 167.938 140.609 164.395 146.114L165.982 157.452C166.399 159.915 160.879 162.52 159.002 165.293L159.902 169.636L157.36 170.666C156.914 175.128 152.592 180.078 147.742 180.078L142.533 180.077C142.533 173.968 138.189 165.248 138.189 160.93C138.189 157.264 139.925 156.771 139.925 152.229C139.925 148.033 135.585 142.015 135.585 140.917V133.955H132.11C131.594 132.015 131.909 131.345 129.506 131.345H128.637C124.843 131.345 125.484 133.085 121.69 133.085H118.214C115.082 133.085 109.53 123.011 109.53 121.771V111.329C109.53 106.822 113.646 101.917 116.478 100.014V95.6647L120.387 91.6827L122.558 91.3124C127.218 91.3124 126.665 88.7028 129.506 88.7028L137.323 88.7036V94.7948L145.918 98.4721L146.728 94.7562C150.622 95.6708 151.635 97.4071 156.433 97.4071H158.168C161.464 97.4071 161.642 93.0256 161.642 89.5761L154.684 90.2652L151.658 83.6577L148.648 84.4601C149.189 86.824 149.485 85.8416 149.485 87.8356C149.485 89.0095 148.519 89.1402 147.746 89.5761L144.737 81.9236L138.267 77.2931L137.408 78.1391L142.917 83.948C142.185 86.0311 142.099 92.0488 139.062 87.8341L141.903 86.4643L134.822 79.0287L130.58 80.6911L126.392 84.7095C125.955 87.9463 125.074 89.575 121.695 89.575C119.444 89.575 120.803 88.9913 117.351 88.7047V80.0035H125.166L122.634 74.2079L121.695 74.7817V73.0398L134.386 67.1767C134.146 65.3509 133.855 66.3299 133.855 64.3386C133.855 64.2195 134.707 62.6136 134.723 62.5954L138.005 64.6376L137.221 60.8917L132.156 61.9356L131.217 57.382C135.232 55.2629 144.068 47.8056 146.878 47.8056L149.485 47.8049C151.374 47.8049 155.446 49.0913 158.19 50.4262C158.32 50.9303 158.458 51.4329 158.603 51.9336L153.804 51.4461L158.975 55.7143L159.352 54.3305C161.82 61.6574 165.758 68.5404 170.506 74.5126C175.702 81.0474 182.286 87.0723 190.119 92.0583C192.188 93.3735 194.776 93.2037 196.638 91.8332C202.668 88.104 208.015 83.4056 212.544 77.9849Z" fill="#A1E367"/>
<path fill-rule="evenodd" clip-rule="evenodd" d="M206.594 74.9155C203.081 78.7743 198.991 82.2314 194.398 85.0271C194.117 85.2363 193.778 85.3545 193.428 85.3657C193.077 85.377 192.732 85.2808 192.438 85.09C185.652 80.7646 179.953 75.5701 175.473 69.9223C169.29 62.1531 165.401 53.5395 164.069 45.2419C162.711 36.8307 163.981 28.7332 168.159 22.1546C169.805 19.5537 171.91 17.1867 174.474 15.14C180.368 10.4371 187.097 7.95034 193.807 8.00075C200.267 8.05078 206.644 10.4625 212.154 15.5054C214.09 17.2686 215.717 19.2899 217.049 21.4803C221.542 28.897 222.509 38.3536 220.536 47.9364C218.589 57.4055 213.751 67.0262 206.594 74.8958V74.9155ZM192.526 22.96C200.492 22.96 206.946 29.4322 206.946 37.4094C206.946 45.3931 200.486 51.8593 192.526 51.8593C184.558 51.8593 178.106 45.3931 178.106 37.4094C178.1 29.4261 184.558 22.96 192.526 22.96Z" fill="#EF4136"/>
</g>
<defs>
<clipPath id="clip0_1_4818">
<rect width="160" height="194" fill="white" transform="translate(73 8)"/>
</clipPath>
</defs>
</svg>
