<svg width="21" height="21" viewBox="0 0 21 21" fill="none" xmlns="http://www.w3.org/2000/svg">
<g clip-path="url(#clip0_49701_612)">
<path d="M13.8334 13.8333L10.5001 10.5L7.16675 13.8333" stroke="#797272" stroke-width="2" stroke-linecap="round" stroke-linejoin="round"/>
<path d="M10.5 10.5V18" stroke="#797272" stroke-width="2" stroke-linecap="round" stroke-linejoin="round"/>
<path d="M17.4916 15.825C18.3044 15.3819 18.9465 14.6807 19.3165 13.8322C19.6866 12.9836 19.7635 12.036 19.5351 11.1389C19.3068 10.2418 18.7862 9.44626 18.0555 8.87787C17.3248 8.30948 16.4257 8.00061 15.5 8H14.45C14.1977 7.02436 13.7276 6.11861 13.0749 5.35082C12.4222 4.58304 11.604 3.97321 10.6817 3.56717C9.75943 3.16113 8.75709 2.96946 7.75006 3.00657C6.74304 3.04367 5.75752 3.30858 4.86761 3.78138C3.97771 4.25419 3.20656 4.92258 2.61215 5.73631C2.01774 6.55005 1.61554 7.48794 1.43578 8.47949C1.25602 9.47104 1.30339 10.4904 1.57431 11.461C1.84523 12.4317 2.33267 13.3282 2.99997 14.0833" stroke="#797272" stroke-width="2" stroke-linecap="round" stroke-linejoin="round"/>
<path d="M13.8334 13.8333L10.5001 10.5L7.16675 13.8333" stroke="#797272" stroke-width="2" stroke-linecap="round" stroke-linejoin="round"/>
</g>
<defs>
<clipPath id="clip0_49701_612">
<rect width="20" height="20" fill="white" transform="translate(0.5 0.5)"/>
</clipPath>
</defs>
</svg>
